<?xml version="1.0" encoding="UTF-8"?>
<svg width="128" height="128" version="1.1" viewBox="0 0 128 128" xml:space="preserve" xmlns="http://www.w3.org/2000/svg">
<style type="text/css">
	.st0{fill:#ED2024;}
	.st1{stroke:#000000;stroke-miterlimit:10;}
	.st2{fill:#F9A01B;}
	.st4{fill:none;}
	.st7{fill:#E64F25;}
</style>
<g stroke-width=".715">
<path class="st0" d="m84.3 120h-67.5c-4.72 0-8.58-3.87-8.58-8.59v-67.6c2.93 1.07 6.07 1.57 9.36 1.57 2.43 0 4.86-0.286 7.08-0.931v50.4c0 4.72 3.86 8.59 8.58 8.59h50.2c-0.572 2.22-0.858 4.51-0.858 6.94 0 3.44 0.643 6.59 1.72 9.59z" fill="#ed2024"/>
<path class="st0" d="m120 16.8v67.4c-2.93-1.07-6.07-1.57-9.36-1.57-2.43 0-4.86 0.286-7.08 0.931v-50.2c0-4.72-3.86-8.59-8.58-8.59h-50.3c0.572-2.29 0.929-4.65 0.929-7.09 0-3.29-0.572-6.44-1.57-9.38h67.5c4.65-0.0716 8.5 3.79 8.5 8.52z" fill="#ed2024"/>
<path class="st1" d="m105 96.2c-3.86 1.57-6.86 4.72-8.43 8.59l-73-73.2c3.86-1.57 6.93-4.65 8.5-8.52l49 49z" stroke="#000" stroke-miterlimit="10"/>
</g>
<g stroke="#fff" stroke-width="2">
<path class="st7" d="m63.9 85.2c-11.6 0-21.1-9.45-21.1-21.1 0-11.6 9.43-21.1 21.1-21.1s21.1 9.45 21.1 21.1c0 2.79-0.5 5.44-1.57 7.95-2.14 5.3-6.36 9.52-11.6 11.7-2.5 0.931-5.15 1.5-7.86 1.5z" fill="#e64f25"/>
<path class="st2" d="m110 127c-9.08 0-16.4-7.37-16.4-16.5 0-2.08 0.357-4.08 1.14-5.94 1.57-4.15 4.86-7.52 9.01-9.23 2-0.859 4.15-1.29 6.29-1.29 9.08 0 16.4 7.37 16.4 16.5s-7.36 16.5-16.4 16.5z" fill="#f9a01b"/>
<path class="st2" d="m17.5 33.9c-9.08 0-16.4-7.37-16.4-16.5 0-9.09 7.36-16.5 16.4-16.5 9.08 0 16.4 7.37 16.4 16.5 0 2.15-0.429 4.22-1.21 6.16-1.64 4.08-5 7.45-9.08 9.09-2 0.859-4.07 1.22-6.15 1.22z" fill="#f9a01b"/>
</g>
<rect class="st4" x="264" y="-118" width="287" height="78.5" fill="none"/>
</svg>
